<?xml version="1.0" encoding="UTF-8" standalone="no"?>
<!-- Created with Inkscape (http://www.inkscape.org/) -->

<svg
   xmlns:dc="http://purl.org/dc/elements/1.1/"
   xmlns:cc="http://creativecommons.org/ns#"
   xmlns:rdf="http://www.w3.org/1999/02/22-rdf-syntax-ns#"
   xmlns:svg="http://www.w3.org/2000/svg"
   xmlns="http://www.w3.org/2000/svg"
   xmlns:xlink="http://www.w3.org/1999/xlink"
   xmlns:sodipodi="http://sodipodi.sourceforge.net/DTD/sodipodi-0.dtd"
   xmlns:inkscape="http://www.inkscape.org/namespaces/inkscape"
   width="372.04999"
   height="524.40942"
   id="svg2"
   version="1.1"
   inkscape:version="0.48.5 r10040"
   sodipodi:docname="mila-acor.svg"
   inkscape:export-filename="/home/me/documents/activism/mila/mila-acor.png"
   inkscape:export-xdpi="175.74055"
   inkscape:export-ydpi="175.74055">
  <defs
     id="defs4">
    <path
       d="M500-207.10678V207.10678L207.10678,500H-207.10678L-500,207.10678V-207.10678L-207.10678-500H207.10678Z"
       id="Oct" />
  </defs>
  <sodipodi:namedview
     id="base"
     pagecolor="#ffffff"
     bordercolor="#666666"
     borderopacity="1.0"
     inkscape:pageopacity="1"
     inkscape:pageshadow="2"
     inkscape:zoom="0.8010221"
     inkscape:cx="125.70115"
     inkscape:cy="327.73025"
     inkscape:document-units="px"
     inkscape:current-layer="layer1"
     showgrid="false"
     inkscape:window-width="1366"
     inkscape:window-height="768"
     inkscape:window-x="0"
     inkscape:window-y="0"
     inkscape:window-maximized="0"
     width="372.05px" />
  <metadata
     id="metadata7">
    <rdf:RDF>
      <cc:Work
         rdf:about="">
        <dc:format>image/svg+xml</dc:format>
        <dc:type
           rdf:resource="http://purl.org/dc/dcmitype/StillImage" />
        <dc:title></dc:title>
      </cc:Work>
    </rdf:RDF>
  </metadata>
  <g
     inkscape:label="Tavolo 1"
     inkscape:groupmode="layer"
     id="layer1"
     transform="translate(0,-527.95271)">
    <text
       xml:space="preserve"
       style="font-size:95.37992096px;font-style:normal;font-weight:normal;text-align:center;line-height:100%;letter-spacing:0px;word-spacing:0px;writing-mode:lr-tb;text-anchor:middle;fill:#000000;fill-opacity:1;stroke:none;font-family:Sans"
       x="256.46176"
       y="634.94055"
       id="text2989"
       sodipodi:linespacing="100%"><tspan
         sodipodi:role="line"
         x="256.46176"
         y="634.94055"
         id="tspan2997"
         style="font-style:normal;font-variant:normal;font-weight:bold;font-stretch:normal;line-height:100%;letter-spacing:6px;font-family:Guttman Haim;-inkscape-font-specification:Guttman Haim Bold">חבל</tspan><tspan
         sodipodi:role="line"
         x="256.46176"
         y="730.3205"
         id="tspan3003"
         style="font-style:normal;font-variant:normal;font-weight:bold;font-stretch:normal;line-height:100%;font-family:Guttman Haim-Condensed;-inkscape-font-specification:Guttman Haim-Condensed Bold">על כל</tspan></text>
    <text
       xml:space="preserve"
       style="font-size:36.93322372px;font-style:normal;font-variant:normal;font-weight:bold;font-stretch:normal;text-align:center;line-height:125%;letter-spacing:0px;word-spacing:0px;text-anchor:middle;fill:#000000;fill-opacity:1;stroke:none;font-family:ezmelboldwebfont;-inkscape-font-specification:ezmelboldwebfont Bold"
       x="186.24139"
       y="961.72644"
       id="text3005"
       sodipodi:linespacing="125%"><tspan
         sodipodi:role="line"
         id="tspan3007"
         x="186.24139"
         y="961.72644"
         style="font-style:normal;font-variant:normal;font-weight:bold;font-stretch:normal;font-family:ezmelboldwebfont;-inkscape-font-specification:ezmelboldwebfont Bold">שמים סוף לאלימות מינית</tspan><tspan
         sodipodi:role="line"
         x="186.24139"
         y="1007.8929"
         id="tspan3009"
         style="font-style:normal;font-variant:normal;font-weight:bold;font-stretch:normal;font-family:ezmelboldwebfont;-inkscape-font-specification:ezmelboldwebfont Bold">נגד תינוקות!</tspan></text>
    <text
       xml:space="preserve"
       style="font-size:159.54377747000000909px;font-style:normal;font-weight:normal;line-height:125%;letter-spacing:0px;word-spacing:0px;fill:#ff0000;fill-opacity:1;stroke:#000000;font-family:Sans;stroke-opacity:1;stroke-width:7;stroke-miterlimit:4;stroke-dasharray:none"
       x="14.454359"
       y="866.2699"
       id="text3011"
       sodipodi:linespacing="125%"><tspan
         sodipodi:role="line"
         id="tspan3013"
         x="14.454359"
         y="866.2699"
         style="font-style:normal;font-variant:normal;font-weight:normal;font-stretch:normal;fill:#ff0000;fill-opacity:1;font-family:Guttman Haim;-inkscape-font-specification:Guttman Haim;stroke:#000000;stroke-opacity:1;stroke-width:7;stroke-miterlimit:4;stroke-dasharray:none">מילה</tspan></text>
    <path
       sodipodi:nodetypes="sssssccsccccccsccccccccccccccccccccccccccccc"
       inkscape:connector-curvature="0"
       id="rect3801"
       style="opacity:0.98999999;fill:#000000;fill-opacity:0.99607999"
       d="m 73.424839,571.19488 c -18.533948,0 -33.564598,15.14338 -33.564598,33.81825 0,18.67487 15.029241,33.81826 33.564598,33.81826 18.533949,0 33.564601,-15.14339 33.564601,-33.81826 0,-18.67487 -15.029242,-33.81825 -33.564601,-33.81825 z m -19.204733,71.84864 c -4.865161,0 -9.564318,0.64898 -13.617632,4.00188 l -26.886345,27.08927 c -4.6326415,4.66773 -4.9788845,11.82652 -0.78565,16.05092 4.19325,4.22495 11.341897,3.87617 15.974821,-0.79159 l 13.486716,-13.58888 0,37.71813 62.064494,0 0,-37.7621 13.5304,13.63285 c 4.63264,4.66774 11.7376,5.01652 15.93113,0.79159 4.19325,-4.22496 3.80333,-11.38389 -0.82927,-16.05092 L 106.20242,647.0454 c -4.29372,-3.50612 -8.885222,-3.97821 -13.574092,-4.00188 -12.802963,1e-4 -25.605367,-1.6e-4 -38.409462,1e-5 z m 50.236984,50.88099 -10.649702,8.92735 -12.570163,10.55443 8.423703,14.68821 -3.491744,3.78204 c -4.981422,5.32273 -5.90206,12.9539 -2.007704,17.10642 3.894356,4.15309 11.080488,3.21187 16.06219,-2.11086 l 13.22489,-14.16116 c 3.02854,-3.23598 4.52061,-7.30888 4.36461,-10.95028 -0.0638,-2.72682 -0.59445,-5.53609 -1.70219,-7.51998 z m -62.064495,0.0441 -11.653616,20.27292 c -1.361439,2.37593 -1.921741,4.9848 -1.745872,7.51997 -0.156056,3.64141 1.379703,7.71417 4.408296,10.95028 l 13.224885,14.16117 c 4.981421,5.32273 12.123869,6.26394 16.018507,2.11085 3.894356,-4.15308 3.017403,-11.78424 -1.964018,-17.10641 l -3.535289,-3.78204 8.423702,-14.68821 -12.570165,-10.55443 -10.606008,-8.88339 z" />
    <path
       style="color:#000000;fill:#000000;fill-opacity:0.99607999000000003;fill-rule:evenodd;stroke:none;stroke-width:3.48499999999999988;stroke-linecap:butt;stroke-linejoin:miter;stroke-miterlimit:4;stroke-opacity:0.25098039000000000;stroke-dasharray:none;stroke-dashoffset:0;marker:none;visibility:visible;display:inline;overflow:visible;enable-background:accumulate"
       id="path4064"
       d="m 14.411454,893.86994 c 17.006405,1.0555 34.045962,1.12183 51.070235,1.27015 28.710199,0.0662 57.420551,0.14856 86.130821,0.12735 28.0273,-0.0829 56.05465,-0.07 84.08201,-0.0983 22.2711,-0.0961 44.54156,-0.33047 66.81262,-0.44561 15.63395,0.0566 31.26679,-0.13209 46.89915,-0.37905 6.51038,-0.1085 13.0204,-0.23171 19.52993,-0.39871 0.45718,-0.0149 0.91435,-0.0298 1.37152,-0.0447 0,0 -12.59991,11.31682 -12.59991,11.31682 l 0,0 c -0.42396,-0.0149 -0.84792,-0.0299 -1.27189,-0.0447 -6.21353,-0.16906 -12.42763,-0.29084 -18.64211,-0.39871 -15.35096,-0.25135 -30.70245,-0.43664 -46.05509,-0.37904 -21.94031,-0.11475 -43.88,-0.35022 -65.82035,-0.44562 -27.95442,-0.0282 -55.90883,-0.0152 -83.8632,-0.0983 -28.80479,-0.0213 -57.609657,0.0615 -86.414377,0.12734 -17.967593,0.15357 -35.946415,0.26128 -53.8985606,1.27016 0,0 12.6692016,-11.37906 12.6692016,-11.37906 z"
       inkscape:connector-curvature="0" />
    <g
       id="g3801">
      <use
         id="use3132"
         transform="matrix(0.04,0,0,0.04,73.936,708.65113)"
         xlink:href="#Oct"
         x="0"
         y="0"
         width="1"
         height="1" />
      <use
         transform="matrix(0.03960396,0,0,0.03960396,73.936,708.65113)"
         id="use3134"
         style="fill:#ffffff"
         xlink:href="#Oct"
         x="0"
         y="0"
         width="1"
         height="1" />
      <use
         id="use3136"
         transform="matrix(0.0380198,0,0,0.0380198,73.936,708.65113)"
         style="fill:#ff0000;fill-opacity:1"
         xlink:href="#Oct"
         x="0"
         y="0"
         width="1"
         height="1" />
      <use
         id="use3138"
         transform="matrix(0.03643564,0,0,0.03643564,73.936,708.65113)"
         style="fill:#ffffff"
         xlink:href="#Oct"
         x="0"
         y="0"
         width="1"
         height="1" />
      <use
         id="use3140"
         transform="matrix(0.03168317,0,0,0.03168317,73.936,708.65113)"
         style="fill:#ff0000;fill-opacity:1"
         xlink:href="#Oct"
         x="0"
         y="0"
         width="1"
         height="1" />
      <path
         id="path3142"
         d="m 77.140642,720.1438 c 0.290615,-0.43968 -0.244606,-1.77505 0.263695,-3.3213 0.190517,-0.57957 0.801989,-1.08952 1.547724,-1.63974 2.165316,-1.59761 2.305077,-4.03634 2.06301,-6.39124 -0.24774,-2.41007 0.144525,-3.78521 0.144525,-3.78521 l 0.358648,-1.26522 c 0,0 -1.19476,-0.7403 -2.10047,1.00276 -0.905711,1.74307 -0.980837,3.79654 -0.980837,3.79654 0.0566,-0.01 -0.456482,0.94966 -0.994396,0.0277 -0.21339,-0.36577 -0.509887,-8.62748 -0.553489,-8.71534 l -0.06128,-0.69871 c 0.04489,-0.82825 -1.469393,-0.86085 -1.573593,-0.14143 -0.0865,0.59724 0.0015,1.00629 -0.137763,1.08803 -0.153568,0.14173 -0.15147,0.008 -0.305038,-0.10854 l -0.0179,-1.90024 c 0.07998,0.0154 -0.08375,-0.92752 -0.87461,-0.91825 -0.609814,0.007 -0.903656,0.30783 -0.93943,0.9694 -0.01766,0.80543 0.04516,1.42757 0.03734,2.12492 0,0 -0.123723,0.22811 -0.325283,0.0235 -0.08156,-0.49713 -0.02909,-0.97571 -0.253826,-1.27952 -0.27905,-0.37724 -1.336226,-0.52995 -1.531418,0.51224 -0.07366,0.59322 -0.03526,1.03551 -0.0374,1.35255 -0.0032,0.47391 -0.02019,0.66798 -0.02019,0.66798 0,0 -0.259145,0.20461 -0.287945,-0.23019 -0.01304,-0.19697 -0.0084,-0.35196 6.74e-4,-0.46257 -0.264254,-0.78874 -0.924998,-0.64237 -1.238824,-0.17684 -0.217073,1.16015 -0.575881,10.71649 -0.575881,10.71649 -0.0077,0.0314 0.02309,1.66148 1.295738,2.99244 1.062321,1.11098 0.690479,3.55249 0.69107,3.55511 l 0.05759,2.17399 6.349576,0.0307 -5e-6,0 z"
         style="fill:#ffffff;fill-opacity:1;stroke:none"
         inkscape:connector-curvature="0" />
    </g>
  </g>
</svg>
